<?xml version="1.0" standalone="no"?>
<!DOCTYPE svg PUBLIC "-//W3C//DTD SVG 1.1//EN" "http://www.w3.org/Graphics/SVG/1.1/DTD/svg11.dtd" >
<svg xmlns="http://www.w3.org/2000/svg" xmlns:xlink="http://www.w3.org/1999/xlink" version="1.1">
<metadata></metadata>
<defs>
<font id="akrobatthin" horiz-adv-x="880" >
<font-face units-per-em="2048" ascent="1638" descent="-410" />
<missing-glyph horiz-adv-x="534" />
<glyph horiz-adv-x="0" />
<glyph horiz-adv-x="682" />
<glyph unicode=" "  horiz-adv-x="534" />
<glyph unicode="&#x09;" horiz-adv-x="534" />
<glyph unicode="&#xa0;" horiz-adv-x="534" />
<glyph unicode="!" horiz-adv-x="385" d="M143 35q0 23 13.5 36t36.5 13q49 0 49 -49t-49 -49q-23 0 -36.5 13t-13.5 36zM172 236v1198h41v-1198h-41z" />
<glyph unicode="&#x22;" horiz-adv-x="368" d="M49 1085l37 349h66l-68 -349h-35zM213 1085l37 349h65l-67 -349h-35z" />
<glyph unicode="#" horiz-adv-x="1103" d="M43 387l10 39h246l127 559h-246l8 39h246l94 410h41l-94 -410h299l94 410h41l-94 -410h246l-8 -39h-246l-127 -559h246l-11 -39h-245l-88 -387h-41l88 387h-299l-88 -387h-41l88 387h-246zM340 426h299l127 559h-299z" />
<glyph unicode="$" horiz-adv-x="866" d="M90 319h41q16 -138 91.5 -220.5t207.5 -82.5q136 0 216.5 82t80.5 207q0 71 -27 133.5t-71 107.5t-100.5 90t-115 81.5t-115 81t-100.5 89.5t-71 107t-27 133q0 140 86 229.5t222 97.5v153h36v-152q133 -5 217.5 -96.5t96.5 -243.5h-41q-15 145 -89.5 223t-197.5 78 q-127 0 -208 -79t-81 -210q0 -74 34.5 -138.5t90 -112.5t122 -94t133.5 -94t122.5 -100.5t90 -125.5t34.5 -158q0 -136 -89 -229t-235 -98v-152h-36v152q-141 7 -223.5 100t-94.5 241z" />
<glyph unicode="%" horiz-adv-x="1241" d="M76 985v293q0 72 44.5 121t117.5 49q77 0 120 -48t43 -122v-293q0 -74 -43 -122t-120 -48q-73 0 -117.5 49t-44.5 121zM82 0l1034 1434h41l-1034 -1434h-41zM111 985q0 -58 34 -96.5t93 -38.5q62 0 94.5 38t32.5 97v293q0 59 -32.5 97t-94.5 38q-59 0 -93 -38.5 t-34 -96.5v-293zM840 156v293q0 72 44 120.5t117 48.5q77 0 120.5 -48t43.5 -121v-293q0 -73 -43.5 -121.5t-120.5 -48.5q-73 0 -117 48.5t-44 121.5zM874 156q0 -58 34 -97t93 -39q62 0 94.5 38.5t32.5 97.5v293q0 59 -32.5 97t-94.5 38q-59 0 -93 -38.5t-34 -96.5v-293z " />
<glyph unicode="&#x26;" horiz-adv-x="1144" d="M178 328q0 56 17 110t41.5 95.5t66.5 87.5t77 77.5t87 74.5q-173 276 -174 405q-2 124 66.5 201t193.5 77q120 0 193 -75.5t73 -200.5q0 -36 -10 -72t-22 -63.5t-39.5 -62.5t-45.5 -55.5t-58 -56t-58.5 -51.5t-64.5 -53q98 -152 341 -488q67 122 101 281l36 -12 q-38 -170 -113 -302q161 -224 175 -245h-55q-29 41 -145 203q-70 -108 -157.5 -167t-181.5 -59q-155 0 -249.5 96.5t-94.5 254.5zM219 330q0 -140 82 -226t217 -86q89 0 171.5 57t147.5 161q-250 349 -348 503q-50 -41 -82.5 -70.5t-71.5 -72.5t-62 -81t-38.5 -86.5 t-15.5 -98.5zM334 1178q1 -116 166 -378q58 47 86 71t72.5 68.5t66 77t38.5 77.5t17 90q0 105 -62.5 169t-164.5 64q-107 0 -164 -66t-55 -173z" />
<glyph unicode="'" horiz-adv-x="204" d="M49 1085l37 349h66l-68 -349h-35z" />
<glyph unicode="(" horiz-adv-x="526" d="M178 14v1407q0 119 58.5 188.5t162.5 69.5v-39q-87 -3 -133.5 -60t-46.5 -159v-1407q0 -103 47 -162t133 -59v-39q-103 0 -162 71t-59 189z" />
<glyph unicode=")" horiz-adv-x="526" d="M127 -207q86 0 133 59t47 162v1407q0 102 -46.5 159t-133.5 60v39q104 0 162.5 -69.5t58.5 -188.5v-1407q0 -118 -59 -189t-162 -71v39z" />
<glyph unicode="*" horiz-adv-x="575" d="M61 1292l13 37l194 -63v204h39v-204l195 63l12 -37l-195 -63l121 -166l-32 -23l-121 166l-119 -166l-33 23l121 166z" />
<glyph unicode="+" horiz-adv-x="849" d="M111 612v37h295v299h36v-299h297v-37h-297v-297h-36v297h-295z" />
<glyph unicode="," horiz-adv-x="245" d="M72 -248l37 348h65l-68 -348h-34z" />
<glyph unicode="-" horiz-adv-x="686" d="M102 504v39h482v-39h-482z" />
<glyph unicode="." horiz-adv-x="335" d="M119 35q0 49 49 49t49 -49t-49 -49t-49 49z" />
<glyph unicode="/" horiz-adv-x="749" d="M31 -223l645 1868h43l-645 -1868h-43z" />
<glyph unicode="0" horiz-adv-x="901" d="M139 303v827q0 140 92.5 233t225.5 93t225 -93t92 -233v-827q0 -140 -92 -233t-225 -93t-225.5 93t-92.5 233zM180 303q0 -125 80 -206t197 -81t196.5 81t79.5 206v827q0 125 -79.5 206t-196.5 81t-197 -81t-80 -206v-827z" />
<glyph unicode="1" horiz-adv-x="532" d="M70 1178v45l260 211h24v-1434h-41v1372z" />
<glyph unicode="2" horiz-adv-x="774" d="M74 0v41q0 83 32 168.5t82.5 160.5t112 150t123.5 149.5t112.5 147.5t82.5 155t32 161q0 125 -77 202t-195 74q-110 0 -182 -80.5t-78 -212.5h-41q9 147 92.5 239.5t208.5 92.5q135 3 224 -86.5t89 -228.5q0 -84 -32 -170t-82.5 -160t-112 -148.5t-123.5 -148.5 t-112.5 -147t-82.5 -155.5t-32 -162.5h581v-41h-622z" />
<glyph unicode="3" horiz-adv-x="776" d="M47 319h41q3 -133 76.5 -213.5t187.5 -80.5q127 0 201 86t74 243v162q0 134 -79 213.5t-200 79.5h-90v29l348 557h-532v39h585v-25l-346 -561h35q138 0 229 -91.5t91 -240.5v-162q0 -172 -86.5 -270t-229.5 -98q-131 0 -218 92.5t-87 240.5z" />
<glyph unicode="4" horiz-adv-x="765" d="M35 432v35l348 967h39l-344 -963h465l4 522h41v-522h160v-39h-160v-432h-41l-4 432h-508z" />
<glyph unicode="5" horiz-adv-x="845" d="M119 322h41q0 -135 77.5 -219.5t192.5 -84.5t191.5 85t76.5 225v286q0 139 -75 224.5t-187 85.5q-189 0 -258 -209h-43v719h584v-41h-543v-590q36 73 104 116.5t154 43.5q130 0 217.5 -97t87.5 -252v-286q0 -155 -88.5 -251.5t-220.5 -96.5t-221.5 95.5t-89.5 246.5z" />
<glyph unicode="6" horiz-adv-x="874" d="M139 293v817q0 155 88.5 250.5t225.5 95.5q128 0 217 -91.5t92 -236.5h-41q-6 130 -81 209.5t-187 79.5q-120 0 -196.5 -84t-76.5 -223v-324q34 76 108 122t167 46q135 0 226 -96t91 -250v-274q0 -155 -91 -251.5t-226 -96.5q-132 0 -224 89.5t-92 217.5zM180 293 q0 -113 80 -190.5t195 -77.5q118 0 197 85t79 224v274q0 138 -79 222.5t-197 84.5q-115 0 -195 -77.5t-80 -188.5v-356z" />
<glyph unicode="7" horiz-adv-x="743" d="M29 1395v39h616v-37l-385 -1397h-41l383 1395h-573z" />
<glyph unicode="8" horiz-adv-x="897" d="M123 334v78q0 116 58 205t154 121q-86 32 -138 121.5t-52 207.5v41q0 153 83.5 246.5t220.5 93.5t220 -93t83 -247v-41q0 -118 -52 -207.5t-138 -121.5q96 -32 154 -121t58 -205v-78q0 -157 -89.5 -252.5t-235.5 -95.5t-236 95.5t-90 252.5zM164 334q0 -139 78.5 -224 t206.5 -85t206 85t78 224v78q0 138 -78 222.5t-206 84.5t-206.5 -84.5t-78.5 -222.5v-78zM186 1067q0 -139 72 -224t191 -85q118 0 190 84.5t72 224.5v41q0 135 -72 218t-190 83t-190.5 -83t-72.5 -218v-41z" />
<glyph unicode="9" horiz-adv-x="901" d="M117 825v275q0 155 91 251.5t226 96.5q132 0 224 -89.5t92 -217.5v-817q0 -155 -88.5 -251t-225.5 -96q-128 0 -217 91.5t-92 236.5h41q6 -130 81 -209.5t187 -79.5q120 0 196.5 84.5t76.5 223.5v324q-34 -77 -108 -123t-167 -46q-135 0 -226 96t-91 250zM158 825 q0 -138 79 -222.5t197 -84.5q115 0 195 77.5t80 188.5v357q0 113 -80 190.5t-195 77.5q-118 0 -197 -85t-79 -224v-275z" />
<glyph unicode=":" horiz-adv-x="385" d="M143 35q0 23 13.5 36t36.5 13q49 0 49 -49t-49 -49q-23 0 -36.5 13t-13.5 36zM143 754q0 23 13.5 36t36.5 13q49 0 49 -49t-49 -49q-23 0 -36.5 13t-13.5 36z" />
<glyph unicode=";" horiz-adv-x="256" d="M72 -248l37 348h65l-68 -348h-34zM86 752q0 49 49 49t49 -49q0 -23 -13 -36.5t-36 -13.5t-36 13.5t-13 36.5z" />
<glyph unicode="&#x3c;" horiz-adv-x="739" d="M111 610v45l518 285v-43l-482 -264l482 -264v-43z" />
<glyph unicode="=" horiz-adv-x="849" d="M111 510v37h628v-37h-628zM111 715v37h628v-37h-628z" />
<glyph unicode="&#x3e;" horiz-adv-x="739" d="M111 326v43l481 264l-481 264v43l518 -285v-45z" />
<glyph unicode="?" horiz-adv-x="749" d="M41 1116q3 145 90.5 238.5t216.5 93.5q132 0 219.5 -88t87.5 -223q0 -90 -29.5 -167.5t-71.5 -137t-84 -119.5t-71.5 -142t-29.5 -178v-157h-41v157q0 100 29.5 183.5t71.5 143.5t84 118.5t71.5 134.5t29.5 164q0 120 -75.5 196t-190.5 76t-190.5 -81.5t-75.5 -211.5h-41 zM303 35q0 49 49 49t49 -49t-49 -49t-49 49z" />
<glyph unicode="@" horiz-adv-x="1449" d="M127 551v268q0 300 158 467.5t448 167.5q280 0 435 -158.5t155 -451.5v-221q0 -322 -209 -322q-140 0 -170 139q-32 -67 -87 -103t-126 -36q-110 0 -186 80t-76 203v204q0 124 68 200.5t184 76.5q68 0 124.5 -28.5t90.5 -84.5v103h39v-529q0 -96 33.5 -141t105.5 -45 q87 0 128.5 68t41.5 215v221q0 279 -143.5 426t-407.5 147q-275 0 -421 -156t-146 -442v-268q0 -277 157 -440.5t410 -163.5q110 0 215 28.5t170 85.5l21 -28q-73 -62 -184.5 -92.5t-221.5 -30.5q-132 0 -244 45t-192 127t-125 202.5t-45 266.5zM508 584q0 -106 65 -176 t154 -70q36 0 71 13t67 39t51.5 72.5t19.5 106.5v254q0 95 -66 150t-155 55q-94 0 -150.5 -65.5t-56.5 -174.5v-204z" />
<glyph unicode="A" d="M31 0l385 1434h49l385 -1434h-43l-111 416h-512l-110 -416h-43zM195 455h491l-154 577q-16 59 -46.5 174t-45.5 174q-15 -59 -45.5 -174t-46.5 -174z" />
<glyph unicode="B" horiz-adv-x="966" d="M178 0v1434h287q165 0 258.5 -94.5t93.5 -264.5q0 -121 -55 -210t-173 -119q78 -15 134.5 -48.5t89.5 -82t48.5 -105t15.5 -123.5q0 -183 -106.5 -285t-293.5 -102h-299zM219 39h258q170 0 264.5 90.5t94.5 257.5q0 144 -90.5 241t-264.5 97h-262v-686zM219 764h262 q99 0 167.5 44t98 112t29.5 155q0 154 -81 237t-230 83h-246v-631z" />
<glyph unicode="C" horiz-adv-x="952" d="M139 393v645q0 206 93 313t257 107q339 0 369 -383h-41q-15 174 -96 259t-232 85q-145 0 -227 -96t-82 -285v-645q0 -187 82 -283t227 -96q312 0 336 344h41q-12 -191 -108 -287t-269 -96q-164 0 -257 106.5t-93 311.5z" />
<glyph unicode="D" horiz-adv-x="987" d="M178 0v1434h301q176 0 272.5 -101t96.5 -295v-614q0 -202 -97.5 -313t-271.5 -111h-301zM219 39h260q157 0 242.5 99t85.5 286v614q0 179 -84.5 268t-243.5 89h-260v-1356z" />
<glyph unicode="E" horiz-adv-x="888" d="M178 0v1434h621v-39h-580v-645h535v-39h-535v-672h580v-39h-621z" />
<glyph unicode="F" horiz-adv-x="851" d="M178 0v1434h608v-39h-567v-670h526v-39h-526v-686h-41z" />
<glyph unicode="G" horiz-adv-x="983" d="M139 379v659q0 202 99.5 309t255.5 107q157 0 256 -96t102 -283h-41q-6 172 -92 256t-225 84q-138 0 -226 -95t-88 -282v-659q0 -172 90.5 -266.5t227.5 -94.5q141 0 233 94.5t92 266.5v317h-331v39h372v-356q0 -189 -104 -294t-262 -105q-156 0 -257.5 105t-101.5 294z " />
<glyph unicode="H" horiz-adv-x="1050" d="M178 0v1434h41v-684h612v684h41v-1434h-41v711h-612v-711h-41z" />
<glyph unicode="I" horiz-adv-x="397" d="M178 0v1434h41v-1434h-41z" />
<glyph unicode="J" horiz-adv-x="423" d="M-20 -98q117 0 173 70t56 190v1272h41v-1272q0 -135 -68 -217t-202 -82v39z" />
<glyph unicode="K" horiz-adv-x="948" d="M178 0v1434h41v-776l590 776h51l-472 -617l521 -817h-47l-500 783l-143 -189v-594h-41z" />
<glyph unicode="L" horiz-adv-x="782" d="M178 0v1434h41v-1395h533v-39h-574z" />
<glyph unicode="M" horiz-adv-x="1261" d="M178 6v1428h43l344 -836q11 -26 33 -79.5t33 -80.5q12 27 33 80t32 80l344 836h43v-1428h-41v1178v151q-9 -23 -27.5 -67t-27.5 -66l-336 -813h-41l-336 813q-9 23 -27.5 66.5t-27.5 66.5v-151v-1178h-41z" />
<glyph unicode="N" horiz-adv-x="1073" d="M178 0v1434h41l563 -1192q13 -26 36 -76t36 -76v127v1217h41v-1434h-41l-567 1200q-11 23 -33.5 71t-34.5 72v-159v-1184h-41z" />
<glyph unicode="O" horiz-adv-x="1032" d="M139 393v645q0 205 100.5 311.5t276.5 106.5t276.5 -106.5t100.5 -311.5v-645q0 -203 -100.5 -309.5t-276.5 -106.5t-276.5 106.5t-100.5 309.5zM180 393q0 -186 89 -281.5t247 -95.5t247 95.5t89 281.5v645q0 188 -89 283.5t-247 95.5t-247 -95.5t-89 -283.5v-645z" />
<glyph unicode="P" horiz-adv-x="950" d="M178 0v1434h291q187 0 289 -110.5t104 -309.5v-8q0 -199 -102 -311q-104 -115 -291 -115h-250v-580h-41zM219 618h250q169 0 259.5 104t92.5 292v8q0 175 -90 273q-92 100 -262 100h-250v-777z" />
<glyph unicode="Q" horiz-adv-x="1038" d="M139 393v645q0 205 100.5 311.5t276.5 106.5t276.5 -106.5t100.5 -311.5v-645q0 -215 -114 -323l120 -133l-29 -27l-121 135q-92 -68 -233 -68q-176 0 -276.5 106.5t-100.5 309.5zM180 393q0 -186 89 -281.5t247 -95.5q124 0 206 59l-183 204l28 26l185 -205 q100 97 100 293v645q0 188 -89 283.5t-247 95.5t-247 -95.5t-89 -283.5v-645z" />
<glyph unicode="R" horiz-adv-x="929" d="M178 0v1434h293q181 0 273 -102.5t92 -301.5q0 -187 -88.5 -294.5t-244.5 -114.5l347 -621h-43l-347 621h-241v-621h-41zM219 659h277q138 0 218.5 95t80.5 276q0 365 -324 365h-252v-736z" />
<glyph unicode="S" horiz-adv-x="866" d="M90 319h41q18 -143 94 -223t207 -80q135 0 215 82.5t80 210.5q0 80 -34.5 147.5t-90 117.5t-122 96t-133.5 93t-122.5 98t-90 121t-34.5 153q0 141 93 231t235 90q140 0 229 -91.5t101 -248.5h-41q-15 145 -89.5 223t-197.5 78q-126 0 -207.5 -78.5t-81.5 -203.5 q0 -77 34.5 -142.5t90 -114t122 -94.5t133.5 -93.5t122.5 -99.5t90 -124.5t34.5 -157.5q0 -144 -92.5 -238t-245.5 -94q-151 0 -239.5 94t-100.5 248z" />
<glyph unicode="T" horiz-adv-x="804" d="M53 1395v39h699v-39h-334v-1395h-41v1395h-324z" />
<glyph unicode="U" horiz-adv-x="999" d="M152 377v1057h41v-1057q0 -174 81.5 -266.5t225.5 -92.5t225.5 92.5t81.5 266.5v1057h41v-1057q0 -191 -93 -294t-255 -103t-255 103t-93 294z" />
<glyph unicode="V" horiz-adv-x="860" d="M31 1434h45l282 -1102q13 -46 36.5 -139.5t35.5 -139.5q11 45 35.5 140.5t36.5 140.5l282 1100h45l-374 -1434h-49z" />
<glyph unicode="W" horiz-adv-x="1343" d="M31 1434h45l229 -1102q9 -46 28.5 -137.5t28.5 -137.5q9 46 29 137.5t29 137.5l229 1081h45l224 -1053q10 -50 31.5 -151.5t31.5 -151.5q10 50 31.5 150.5t31.5 150.5l224 1076h45l-307 -1434h-50l-227 1044q-9 48 -28.5 145.5t-28.5 145.5q-9 -48 -29 -145.5t-29 -145.5 l-227 -1044h-49z" />
<glyph unicode="X" horiz-adv-x="837" d="M45 0l352 741l-336 693h45l314 -647l311 647h45l-334 -693l351 -741h-45l-328 691l-330 -691h-45z" />
<glyph unicode="Y" horiz-adv-x="817" d="M23 1434h43l268 -652q13 -31 38.5 -91.5t37.5 -90.5q12 31 36.5 91t36.5 91l269 652h43l-365 -891v-543h-41v543z" />
<glyph unicode="Z" horiz-adv-x="794" d="M49 0v35l617 1360h-592v39h641v-31l-619 -1364h625v-39h-672z" />
<glyph unicode="[" horiz-adv-x="526" d="M178 -246v1925h221v-39h-180v-1847h180v-39h-221z" />
<glyph unicode="\" horiz-adv-x="909" d="M111 1645h43l645 -1868h-43z" />
<glyph unicode="]" horiz-adv-x="526" d="M127 -207h180v1847h-180v39h221v-1925h-221v39z" />
<glyph unicode="^" horiz-adv-x="573" d="M43 989l225 445h37l225 -445h-38l-205 404l-205 -404h-39z" />
<glyph unicode="_" horiz-adv-x="849" d="M72 -14h706v-39h-706v39z" />
<glyph unicode="a" horiz-adv-x="882" d="M109 299q0 147 91 227t259 80h231v166q0 132 -64 204.5t-182 72.5q-116 0 -188 -66.5t-74 -165.5h-39q8 118 88 193t213 75q136 0 210.5 -82t74.5 -231v-772h-39v142q-74 -162 -295 -162q-132 0 -209 84.5t-77 234.5zM147 299q0 -131 67.5 -207t182.5 -76q147 0 220 79 t73 229v245h-231q-151 0 -231.5 -70.5t-80.5 -199.5z" />
<glyph unicode="b" horiz-adv-x="899" d="M154 0v1479h39v-597q31 97 108 150t182 53q126 0 207.5 -93t81.5 -234v-451q0 -142 -88 -234.5t-219 -92.5q-87 0 -160 43.5t-112 112.5v-136h-39zM193 287q0 -113 78 -192t192 -79q115 0 192.5 81.5t77.5 209.5v451q0 129 -72.5 210t-187.5 81q-120 0 -200 -91t-80 -262 v-409z" />
<glyph unicode="c" horiz-adv-x="851" d="M127 311v443q0 150 81 240.5t220 90.5q146 0 228.5 -93t82.5 -253h-39q0 142 -72 226t-200 84q-121 0 -191.5 -81.5t-70.5 -213.5v-443q0 -132 72 -213.5t196 -81.5q127 0 200 84.5t73 231.5h38q0 -163 -82.5 -257.5t-228.5 -94.5q-143 0 -225 90.5t-82 240.5z" />
<glyph unicode="d" horiz-adv-x="899" d="M127 307v451q0 141 81.5 234t207.5 93q105 0 182.5 -53t108.5 -150v597h38v-1479h-38v136q-39 -69 -112 -112.5t-161 -43.5q-131 0 -219 92.5t-88 234.5zM166 307q0 -128 77.5 -209.5t192.5 -81.5q114 0 192.5 79t78.5 192v409q0 171 -80.5 262t-200.5 91 q-115 0 -187.5 -81t-72.5 -210v-451z" />
<glyph unicode="e" horiz-adv-x="874" d="M127 311v443q0 150 83.5 240.5t227.5 90.5q143 0 227.5 -91t84.5 -240v-244h-584v-199q0 -132 72 -213.5t196 -81.5q127 0 197 79t86 216h39q-16 -154 -96 -242.5t-226 -88.5q-143 0 -225 90.5t-82 240.5zM166 547h545v207q0 132 -74 213.5t-199 81.5q-126 0 -199 -81.5 t-73 -213.5v-207z" />
<glyph unicode="f" horiz-adv-x="524" d="M45 1026v39h150v137q0 147 68 222t194 75h26v-37h-26q-108 0 -166 -65t-58 -195v-137h234v-39h-234v-1026h-38v1026h-150z" />
<glyph unicode="g" horiz-adv-x="897" d="M127 348v404q0 146 89.5 239.5t221.5 93.5q88 0 159.5 -43.5t107.5 -121.5v145h38v-1126q0 -156 -74.5 -242t-207.5 -86q-145 0 -230 77t-94 210h39q12 -119 84 -184.5t201 -65.5q116 0 180 75.5t64 215.5v250q-34 -80 -106.5 -127.5t-156.5 -47.5q-134 0 -224.5 94 t-90.5 240zM166 348q0 -130 79.5 -213.5t196.5 -83.5q109 0 186 79.5t77 191.5v456q0 112 -76.5 191.5t-184.5 79.5q-119 0 -198.5 -83.5t-79.5 -213.5v-404z" />
<glyph unicode="h" horiz-adv-x="901" d="M154 0v1479h39v-616q43 104 124 163t181 59q126 0 195 -99.5t69 -289.5v-696h-39v696q0 173 -59.5 263t-169.5 90q-130 0 -215.5 -110.5t-85.5 -283.5v-655h-39z" />
<glyph unicode="i" horiz-adv-x="346" d="M123 1325q0 23 14 37t37 14t37 -14t14 -37t-14 -37t-37 -14t-37 14t-14 37zM154 0v1065h39v-1065h-39z" />
<glyph unicode="j" horiz-adv-x="419" d="M-61 -348q129 4 193.5 77t64.5 199v1137h39v-1137q0 -141 -76 -225t-221 -88v37zM164 1325q0 23 14 37t37 14t37 -14t14 -37t-14 -37t-37 -14t-37 14t-14 37z" />
<glyph unicode="k" horiz-adv-x="813" d="M154 0v1479h39v-962l503 548h52l-420 -454l454 -611h-47l-434 580l-108 -118v-462h-39z" />
<glyph unicode="l" horiz-adv-x="350" d="M156 0v1479h39v-1479h-39z" />
<glyph unicode="m" horiz-adv-x="1413" d="M154 0v1065h39v-198q41 102 117.5 160t170.5 58q96 0 157.5 -62.5t83.5 -184.5q38 115 117 181t181 66q123 0 188.5 -99.5t65.5 -289.5v-696h-39v696q0 173 -56 263t-163 90q-124 0 -203.5 -110t-79.5 -284v-655h-39v696q0 173 -56 263t-161 90q-123 0 -203.5 -110.5 t-80.5 -283.5v-655h-39z" />
<glyph unicode="n" horiz-adv-x="899" d="M154 0v1065h39v-202q43 104 124 163t181 59q125 0 193.5 -99.5t68.5 -289.5v-696h-39v696q0 173 -59 263t-168 90q-130 0 -215.5 -110.5t-85.5 -283.5v-655h-39z" />
<glyph unicode="o" d="M127 311v443q0 150 83.5 240.5t229.5 90.5t230 -90.5t84 -240.5v-443q0 -150 -84 -240.5t-230 -90.5t-229.5 90.5t-83.5 240.5zM166 311q0 -133 73.5 -214t200.5 -81t201 81.5t74 213.5v443q0 132 -74 213.5t-201 81.5t-200.5 -81t-73.5 -214v-443z" />
<glyph unicode="p" horiz-adv-x="899" d="M154 -369v1434h39v-189q33 99 109 154t181 55q121 0 205 -93t84 -234v-451q0 -140 -87.5 -233.5t-215.5 -93.5q-89 0 -165.5 47.5t-110.5 126.5v-523h-39zM193 287q0 -113 78 -192t192 -79q115 0 192.5 81.5t77.5 209.5v451q0 128 -74 209.5t-184 81.5 q-113 0 -197.5 -90.5t-84.5 -241.5v-430z" />
<glyph unicode="q" horiz-adv-x="899" d="M127 307v451q0 141 84 234t205 93q105 0 181.5 -55t109.5 -154v189h38v-1434h-38v523q-34 -79 -111 -126.5t-166 -47.5q-128 0 -215.5 93.5t-87.5 233.5zM166 307q0 -128 77.5 -209.5t192.5 -81.5q114 0 192.5 79t78.5 192v430q0 151 -85 241.5t-198 90.5 q-110 0 -184 -81.5t-74 -209.5v-451z" />
<glyph unicode="r" horiz-adv-x="641" d="M154 6v1059h39v-201q42 103 121.5 162t177.5 59q74 0 110 -12v-41q-66 17 -119 17q-124 0 -207 -110.5t-83 -283.5v-649h-39z" />
<glyph unicode="s" horiz-adv-x="786" d="M88 276h39q14 -260 276 -260q105 0 178.5 61t73.5 159q0 58 -24 105t-63 77.5t-88.5 59t-102 50t-102 51t-88.5 61.5t-63 82t-24 112q0 110 80 180.5t201 70.5q129 0 207 -70.5t84 -193.5h-39q-6 110 -72 169t-180 59q-103 0 -172.5 -59.5t-69.5 -155.5q0 -56 24 -101 t63 -74.5t88.5 -57.5t102 -50t102 -52t88.5 -63.5t63 -84.5t24 -115q0 -111 -85.5 -183.5t-205.5 -72.5q-143 0 -225.5 75t-89.5 221z" />
<glyph unicode="t" horiz-adv-x="563" d="M51 1028v37h148v252h39v-252h249v-37h-249v-770q0 -117 56.5 -171t168.5 -54h37v-37h-37q-133 0 -198.5 64t-65.5 198v770h-148z" />
<glyph unicode="u" horiz-adv-x="899" d="M139 369v696h39v-696q0 -173 59.5 -263t168.5 -90q130 0 215.5 110.5t85.5 283.5v655h38v-1065h-38v202q-43 -103 -124.5 -162.5t-181.5 -59.5q-125 0 -193.5 99.5t-68.5 289.5z" />
<glyph unicode="v" horiz-adv-x="745" d="M43 1065h41l207 -723q13 -48 40.5 -143.5t41.5 -143.5q13 48 40.5 143.5t41.5 143.5l207 723h40l-309 -1065h-41z" />
<glyph unicode="w" horiz-adv-x="1191" d="M43 1065h41l199 -825q8 -33 23.5 -97.5t23.5 -97.5q8 33 23.5 97.5t23.5 97.5l198 804h41l199 -804q8 -33 23.5 -97.5t23.5 -97.5q8 33 23.5 97.5t23.5 97.5l199 825h41l-266 -1065h-41l-215 846q-5 20 -15.5 63.5t-15.5 63.5q-5 -21 -15.5 -64t-15.5 -63l-215 -846h-41z " />
<glyph unicode="x" horiz-adv-x="722" d="M33 0l307 541l-295 524h45l272 -489l273 489h43l-291 -524l303 -541h-47l-281 504l-284 -504h-45z" />
<glyph unicode="y" horiz-adv-x="755" d="M43 1065h43l209 -604l100 -293l90 295l187 602h41l-385 -1243q-64 -191 -185 -191h-53v37h51q95 0 152 166l83 270z" />
<glyph unicode="z" horiz-adv-x="684" d="M45 0v35l524 995h-489v37h534v-35l-522 -995h529v-37h-576z" />
<glyph unicode="{" horiz-adv-x="659" d="M127 702v46q73 33 108 99t35 144v402q0 120 74 203t188 83v-39q-97 -4 -159 -74t-62 -173v-402q0 -83 -34.5 -156t-103.5 -110q69 -37 103.5 -110t34.5 -156v-418q0 -104 62.5 -176t158.5 -72v-39q-114 0 -188 83.5t-74 203.5v418q0 78 -35 144t-108 99z" />
<glyph unicode="|" horiz-adv-x="352" d="M156 -158v1786h41v-1786h-41z" />
<glyph unicode="}" horiz-adv-x="659" d="M127 -207q96 4 158.5 74.5t62.5 173.5v401q0 83 35 156.5t104 110.5q-69 37 -104 110t-35 156v418q0 104 -62.5 175.5t-158.5 71.5v39q114 0 188 -83t74 -203v-418q0 -78 35 -144.5t108 -99.5v-45q-73 -33 -108 -99.5t-35 -144.5v-401q0 -120 -74 -203.5t-188 -83.5v39z " />
<glyph unicode="~" horiz-adv-x="874" d="M121 580q66 106 160 106q48 0 108.5 -28t117.5 -56.5t97 -28.5q24 0 44 8.5t36.5 26.5t25 31t21.5 35l25 -25q-59 -110 -154 -110q-47 0 -107 28t-117 56t-97 28q-46 0 -77 -26.5t-61 -71.5z" />
<glyph unicode="&#xa1;" horiz-adv-x="385" d="M143 1034q0 23 13.5 36t36.5 13q49 0 49 -49t-49 -49q-23 0 -36.5 13t-13.5 36zM172 -369v1203h41v-1203h-41z" />
<glyph unicode="&#xa2;" horiz-adv-x="851" d="M127 311v443q0 145 76 235t209 96v127h37v-127q135 -7 211.5 -100t76.5 -246h-39q0 142 -72 226t-198 84q-121 0 -191.5 -81.5t-70.5 -213.5v-443q0 -132 72 -213.5t196 -81.5q127 0 200 84.5t73 231.5h38q0 -159 -78.5 -253t-217.5 -99v-127h-37v127q-133 7 -209 97.5 t-76 233.5z" />
<glyph unicode="&#xa3;" horiz-adv-x="931" d="M70 0v37q63 3 104 63t41 162v449h-145v37h145v362q0 142 88.5 240t220.5 98t218 -95.5t89 -236.5h-40q-3 128 -76 210.5t-191 82.5q-115 0 -191.5 -85.5t-76.5 -213.5v-362h455v-37h-455v-449q0 -162 -83 -225h679v-37h-782z" />
<glyph unicode="&#xa4;" horiz-adv-x="835" d="M80 317l76 91q-50 77 -50 206v129q0 128 50 205l-76 92l29 25l71 -84q37 44 99.5 69t138.5 25t138 -25t99 -69l72 84l29 -25l-76 -92q49 -76 49 -205v-129q0 -130 -49 -206l76 -91l-29 -24l-72 84q-37 -44 -99 -69t-138 -25t-138.5 25t-99.5 69l-71 -84zM145 614 q0 -146 69.5 -220.5t203.5 -74.5t203 74.5t69 220.5v129q0 146 -69 220.5t-203 74.5t-203.5 -74.5t-69.5 -220.5v-129z" />
<glyph unicode="&#xa5;" horiz-adv-x="817" d="M23 1434h43l268 -652q13 -31 38.5 -91.5t37.5 -90.5q12 31 36.5 91t36.5 91l269 652h43l-348 -850h272v-39h-288l-1 -2v-164h289v-39h-289v-340h-41v340h-289v39h289v164l-1 2h-288v39h272z" />
<glyph unicode="&#xa6;" horiz-adv-x="311" d="M135 -133v577h41v-577h-41zM135 1051v577h41v-577h-41z" />
<glyph unicode="&#xa7;" horiz-adv-x="821" d="M90 756q0 98 54 168.5t151 97.5q-73 39 -117.5 100.5t-44.5 141.5q0 107 68.5 172t187.5 65q139 0 215 -75t76 -209h-39q0 118 -64.5 182.5t-185.5 64.5q-100 0 -159.5 -54t-59.5 -146q0 -60 30.5 -108t79 -79.5t107 -59.5t117.5 -57t107.5 -63.5t79 -87t30.5 -119.5 q0 -97 -54.5 -170.5t-145.5 -100.5q161 -86 161 -239q0 -114 -74.5 -183t-203.5 -69q-137 0 -214 76.5t-77 212.5h39q3 -117 65.5 -184.5t183.5 -67.5q110 0 175 59t65 156q0 62 -30.5 110t-79.5 78.5t-107.5 57.5t-117.5 55.5t-108 62.5t-79.5 88t-30.5 124zM131 756 q0 -29 4.5 -54t18.5 -47.5t25.5 -39t40.5 -37t46.5 -32.5t61.5 -33t68 -32t81 -37q94 15 149.5 81t55.5 163q0 31 -7.5 58t-19 48.5t-36.5 43.5t-47 38.5t-65 39.5t-76.5 39t-94.5 44q-98 -22 -151.5 -84.5t-53.5 -158.5z" />
<glyph unicode="&#xa9;" horiz-adv-x="1417" d="M139 573v275q0 299 145 452.5t427 153.5q280 0 423.5 -153.5t143.5 -452.5v-275q0 -293 -143.5 -443t-423.5 -150q-282 0 -427 150t-145 443zM178 573q0 -275 135 -416t398 -141q261 0 394.5 141t133.5 416v275q0 281 -133.5 425t-394.5 144q-263 0 -398 -144t-135 -425 v-275zM473 578v276q0 128 64 201t172 73q100 0 165.5 -65.5t65.5 -171.5h-39q0 92 -53.5 146.5t-138.5 54.5q-89 0 -143 -63.5t-54 -174.5v-276q0 -108 54.5 -169t146.5 -61q87 0 142.5 55t55.5 144h39q0 -108 -66 -172t-171 -64q-110 0 -175 71.5t-65 195.5z" />
<glyph unicode="&#xab;" horiz-adv-x="874" d="M102 512v29l275 327h47l-287 -342l287 -342h-47zM451 512v29l274 327h47l-287 -342l287 -342h-47z" />
<glyph unicode="&#xac;" horiz-adv-x="874" d="M121 612v37h633v-198h-35v161h-598z" />
<glyph unicode="&#xad;" horiz-adv-x="686" d="M102 504v39h482v-39h-482z" />
<glyph unicode="&#xae;" horiz-adv-x="952" d="M143 934v176q0 171 89 257.5t253 86.5q162 0 250 -86.5t88 -257.5v-176q0 -166 -88 -251t-250 -85q-164 0 -253 85t-89 251zM172 934q0 -154 81 -230.5t232 -76.5q149 0 229.5 76.5t80.5 230.5v176q0 157 -80.5 236t-229.5 79q-151 0 -232 -79t-81 -236v-176zM367 752 v538h114q77 0 117.5 -38t40.5 -113q0 -65 -33.5 -106.5t-89.5 -48.5l129 -232h-35l-128 231h-85v-231h-30zM397 1014h105q49 0 77.5 32t28.5 93q0 121 -127 121h-84v-246z" />
<glyph unicode="&#xb0;" horiz-adv-x="655" d="M90 1194q0 114 65.5 184t172.5 70t172 -70t65 -184t-65 -184t-172 -70t-172.5 70t-65.5 184zM127 1194q0 -98 55 -158.5t146 -60.5t146.5 60.5t55.5 158.5t-55.5 158.5t-146.5 60.5t-146 -60.5t-55 -158.5z" />
<glyph unicode="&#xb1;" horiz-adv-x="874" d="M123 238v36h629v-36h-629zM123 668v37h295v299h37v-299h297v-37h-297v-297h-37v297h-295z" />
<glyph unicode="&#xb6;" horiz-adv-x="1067" d="M127 1171q0 124 74.5 193.5t208.5 69.5h479v-1606h-41v1567h-397v-1567h-41v1081q-134 0 -208.5 69t-74.5 193z" />
<glyph unicode="&#xb7;" horiz-adv-x="335" d="M119 518q0 49 49 49t49 -49t-49 -49t-49 49z" />
<glyph unicode="&#xbb;" horiz-adv-x="874" d="M102 184l287 342l-287 342h48l274 -327v-29l-274 -328h-48zM451 184l286 342l-286 342h47l274 -327v-29l-274 -328h-47z" />
<glyph unicode="&#xbf;" horiz-adv-x="749" d="M94 -68q0 76 21.5 144t53 116.5t69 103.5t69 105t53 122t21.5 153v158h41v-158q0 -85 -21.5 -158.5t-53 -123.5t-69 -105t-69 -101.5t-53 -113.5t-21.5 -142q0 -120 75.5 -196t190.5 -76t191 81.5t76 211.5h41q-3 -145 -91 -238.5t-217 -93.5q-132 0 -219.5 88t-87.5 223 zM348 1034q0 49 49 49t49 -49t-49 -49t-49 49z" />
<glyph unicode="&#xc0;" d="M31 0l385 1434h49l385 -1434h-43l-111 416h-512l-110 -416h-43zM195 455h491l-154 577q-16 59 -46.5 174t-45.5 174q-15 -59 -45.5 -174t-46.5 -174zM266 1792h53l177 -211h-41z" />
<glyph unicode="&#xc1;" d="M31 0l385 1434h49l385 -1434h-43l-111 416h-512l-110 -416h-43zM195 455h491l-154 577q-16 59 -46.5 174t-45.5 174q-15 -59 -45.5 -174t-46.5 -174zM371 1581l176 211h53l-188 -211h-41z" />
<glyph unicode="&#xc2;" d="M31 0l385 1434h49l385 -1434h-43l-111 416h-512l-110 -416h-43zM195 455h491l-154 577q-16 59 -46.5 174t-45.5 174q-15 -59 -45.5 -174t-46.5 -174zM260 1581l156 211h49l156 -211h-39l-142 181l-141 -181h-39z" />
<glyph unicode="&#xc3;" d="M31 0l385 1434h49l385 -1434h-43l-111 416h-512l-110 -416h-43zM195 455h491l-154 577q-16 59 -46.5 174t-45.5 174q-15 -59 -45.5 -174t-46.5 -174zM240 1642q1 63 33 102.5t79 39.5q30 0 55.5 -17t40 -37.5t36 -37.5t44.5 -17q31 0 51 27.5t21 77.5h39 q-3 -65 -33.5 -103.5t-79.5 -38.5q-29 0 -53.5 17t-39.5 37.5t-37 37.5t-46 17q-31 0 -50.5 -27.5t-20.5 -77.5h-39z" />
<glyph unicode="&#xc4;" d="M31 0l385 1434h49l385 -1434h-43l-111 416h-512l-110 -416h-43zM195 455h491l-154 577q-16 59 -46.5 174t-45.5 174q-15 -59 -45.5 -174t-46.5 -174zM279 1708q0 49 49 49t49 -49t-49 -49t-49 49zM504 1708q0 49 49 49t49 -49t-49 -49t-49 49z" />
<glyph unicode="&#xc5;" d="M31 0l385 1434h49l385 -1434h-43l-111 416h-512l-110 -416h-43zM195 455h491l-154 577q-16 59 -46.5 174t-45.5 174q-15 -59 -45.5 -174t-46.5 -174zM319 1720q0 54 33.5 86.5t87.5 32.5t87.5 -32.5t33.5 -86.5q0 -55 -33.5 -89t-87.5 -34t-87.5 34t-33.5 89zM356 1718 q0 -38 23 -62t61 -24t61 24t23 62t-23 62t-61 24t-61 -24t-23 -62z" />
<glyph unicode="&#xc6;" horiz-adv-x="1320" d="M0 0l657 1434h574v-39h-508v-645h467v-39h-467v-672h508v-39h-549v416h-447l-192 -416h-43zM253 455h429v927q-25 -56 -77 -167t-77 -166z" />
<glyph unicode="&#xc7;" horiz-adv-x="952" d="M139 393v645q0 206 93 313t257 107q339 0 369 -383h-41q-15 174 -96 259t-232 85q-145 0 -227 -96t-82 -285v-645q0 -187 82 -283t227 -96q312 0 336 344h41q-12 -184 -102 -280t-252 -102l-31 -95q21 6 51 6q63 0 101.5 -37t38.5 -96q0 -62 -44.5 -98.5t-117.5 -36.5 q-68 0 -116 41.5t-48 91.5h39q4 -44 38 -70t87 -26q55 0 89 26t34 72q0 42 -29 70.5t-69 28.5q-47 3 -78 -11l-17 19l37 115q-158 4 -248 110.5t-90 306.5z" />
<glyph unicode="&#xc8;" horiz-adv-x="888" d="M178 0v1434h621v-39h-580v-645h535v-39h-535v-672h580v-39h-621zM324 1792h53l176 -211h-41z" />
<glyph unicode="&#xc9;" horiz-adv-x="888" d="M178 0v1434h621v-39h-580v-645h535v-39h-535v-672h580v-39h-621zM428 1581l176 211h53l-188 -211h-41z" />
<glyph unicode="&#xca;" horiz-adv-x="888" d="M178 0v1434h621v-39h-580v-645h535v-39h-535v-672h580v-39h-621zM317 1581l156 211h49l156 -211h-39l-141 181l-142 -181h-39z" />
<glyph unicode="&#xcb;" horiz-adv-x="888" d="M178 0v1434h621v-39h-580v-645h535v-39h-535v-672h580v-39h-621zM336 1708q0 49 49 49t49 -49t-49 -49t-49 49zM561 1708q0 49 49 49t49 -49t-49 -49t-49 49z" />
<glyph unicode="&#xcc;" horiz-adv-x="397" d="M25 1792h53l176 -211h-41zM178 0v1434h41v-1434h-41z" />
<glyph unicode="&#xcd;" horiz-adv-x="397" d="M129 1581l176 211h53l-188 -211h-41zM178 0v1434h41v-1434h-41z" />
<glyph unicode="&#xce;" horiz-adv-x="397" d="M18 1581l156 211h49l156 -211h-39l-141 181l-142 -181h-39zM178 0v1434h41v-1434h-41z" />
<glyph unicode="&#xcf;" horiz-adv-x="393" d="M45 1708q0 49 49 49t49 -49t-49 -49t-49 49zM176 0v1434h41v-1434h-41zM250 1708q0 49 49 49t49 -49t-49 -49t-49 49z" />
<glyph unicode="&#xd0;" horiz-adv-x="1011" d="M25 711v39h178v684h297q177 0 274.5 -101t97.5 -295v-614q0 -202 -98.5 -313t-273.5 -111h-297v711h-178zM244 39h256q159 0 245 99t86 286v614q0 179 -85 268t-246 89h-256v-645h241v-39h-241v-672z" />
<glyph unicode="&#xd1;" horiz-adv-x="1073" d="M178 0v1434h41l563 -1192q13 -26 36 -76t36 -76v127v1217h41v-1434h-41l-567 1200q-11 23 -33.5 71t-34.5 72v-159v-1184h-41zM340 1642q1 63 33 102.5t80 39.5q30 0 55.5 -17t40 -37.5t36 -37.5t44.5 -17q31 0 50.5 27.5t20.5 77.5h39q-3 -65 -33 -103.5t-79 -38.5 q-29 0 -53.5 17t-39.5 37.5t-37 37.5t-46 17q-31 0 -51 -27.5t-21 -77.5h-39z" />
<glyph unicode="&#xd2;" horiz-adv-x="1032" d="M139 393v645q0 205 100.5 311.5t276.5 106.5t276.5 -106.5t100.5 -311.5v-645q0 -203 -100.5 -309.5t-276.5 -106.5t-276.5 106.5t-100.5 309.5zM180 393q0 -186 89 -281.5t247 -95.5t247 95.5t89 281.5v645q0 188 -89 283.5t-247 95.5t-247 -95.5t-89 -283.5v-645z M342 1792h53l176 -211h-41z" />
<glyph unicode="&#xd3;" horiz-adv-x="1032" d="M139 393v645q0 205 100.5 311.5t276.5 106.5t276.5 -106.5t100.5 -311.5v-645q0 -203 -100.5 -309.5t-276.5 -106.5t-276.5 106.5t-100.5 309.5zM180 393q0 -186 89 -281.5t247 -95.5t247 95.5t89 281.5v645q0 188 -89 283.5t-247 95.5t-247 -95.5t-89 -283.5v-645z M446 1581l177 211h53l-189 -211h-41z" />
<glyph unicode="&#xd4;" horiz-adv-x="1032" d="M139 393v645q0 205 100.5 311.5t276.5 106.5t276.5 -106.5t100.5 -311.5v-645q0 -203 -100.5 -309.5t-276.5 -106.5t-276.5 106.5t-100.5 309.5zM180 393q0 -186 89 -281.5t247 -95.5t247 95.5t89 281.5v645q0 188 -89 283.5t-247 95.5t-247 -95.5t-89 -283.5v-645z M336 1581l156 211h49l155 -211h-39l-141 181l-141 -181h-39z" />
<glyph unicode="&#xd5;" horiz-adv-x="1032" d="M139 393v645q0 205 100.5 311.5t276.5 106.5t276.5 -106.5t100.5 -311.5v-645q0 -203 -100.5 -309.5t-276.5 -106.5t-276.5 106.5t-100.5 309.5zM180 393q0 -186 89 -281.5t247 -95.5t247 95.5t89 281.5v645q0 188 -89 283.5t-247 95.5t-247 -95.5t-89 -283.5v-645z M315 1642q1 63 33 102.5t80 39.5q30 0 55.5 -17t40 -37.5t36 -37.5t44.5 -17q31 0 51 27.5t21 77.5h39q-3 -65 -33.5 -103.5t-79.5 -38.5q-29 0 -53.5 17t-39.5 37.5t-37 37.5t-46 17q-31 0 -51 -27.5t-21 -77.5h-39z" />
<glyph unicode="&#xd6;" horiz-adv-x="1032" d="M139 393v645q0 205 100.5 311.5t276.5 106.5t276.5 -106.5t100.5 -311.5v-645q0 -203 -100.5 -309.5t-276.5 -106.5t-276.5 106.5t-100.5 309.5zM180 393q0 -186 89 -281.5t247 -95.5t247 95.5t89 281.5v645q0 188 -89 283.5t-247 95.5t-247 -95.5t-89 -283.5v-645z M354 1708q0 49 49 49q23 0 36.5 -13t13.5 -36t-13.5 -36t-36.5 -13q-49 0 -49 49zM580 1708q0 49 49 49t49 -49t-49 -49t-49 49z" />
<glyph unicode="&#xd7;" horiz-adv-x="811" d="M102 352l279 279l-279 278l25 25l279 -279l278 279l25 -25l-279 -278l279 -279l-25 -24l-278 278l-279 -278z" />
<glyph unicode="&#xd8;" horiz-adv-x="1032" d="M139 393v645q0 205 100.5 311.5t276.5 106.5q114 0 198 -45l34 111h38l-39 -132q146 -105 146 -352v-645q0 -203 -100.5 -309.5t-276.5 -106.5q-104 0 -181 37l-32 -106h-39l38 125q-163 101 -163 360zM180 393q0 -227 134 -320l388 1298q-76 46 -186 46 q-158 0 -247 -95.5t-89 -283.5v-645zM347 53q71 -37 169 -37q158 0 247 95.5t89 281.5v645q0 215 -117 310z" />
<glyph unicode="&#xd9;" horiz-adv-x="999" d="M152 377v1057h41v-1057q0 -174 81.5 -266.5t225.5 -92.5t225.5 92.5t81.5 266.5v1057h41v-1057q0 -191 -93 -294t-255 -103t-255 103t-93 294zM326 1792h53l176 -211h-41z" />
<glyph unicode="&#xda;" horiz-adv-x="999" d="M152 377v1057h41v-1057q0 -174 81.5 -266.5t225.5 -92.5t225.5 92.5t81.5 266.5v1057h41v-1057q0 -191 -93 -294t-255 -103t-255 103t-93 294zM430 1581l176 211h53l-188 -211h-41z" />
<glyph unicode="&#xdb;" horiz-adv-x="999" d="M152 377v1057h41v-1057q0 -174 81.5 -266.5t225.5 -92.5t225.5 92.5t81.5 266.5v1057h41v-1057q0 -191 -93 -294t-255 -103t-255 103t-93 294zM319 1581l156 211h49l156 -211h-39l-141 181l-142 -181h-39z" />
<glyph unicode="&#xdc;" horiz-adv-x="999" d="M152 377v1057h41v-1057q0 -174 81.5 -266.5t225.5 -92.5t225.5 92.5t81.5 266.5v1057h41v-1057q0 -191 -93 -294t-255 -103t-255 103t-93 294zM338 1708q0 49 49 49t49 -49t-49 -49t-49 49zM563 1708q0 49 49 49q23 0 36.5 -13t13.5 -36t-13.5 -36t-36.5 -13 q-49 0 -49 49z" />
<glyph unicode="&#xdd;" horiz-adv-x="817" d="M23 1434h43l268 -652q13 -31 38.5 -91.5t37.5 -90.5q12 31 36.5 91t36.5 91l269 652h43l-365 -891v-543h-41v543zM338 1581l176 211h53l-188 -211h-41z" />
<glyph unicode="&#xde;" horiz-adv-x="905" d="M178 6v1428h41v-271h236q187 0 287.5 -107t101.5 -313q1 -212 -105.5 -323t-279.5 -111h-240v-303h-41zM219 348h240q158 0 250.5 98.5t93.5 296.5q3 381 -348 381h-236v-776z" />
<glyph unicode="&#xdf;" horiz-adv-x="882" d="M154 0v1085q0 175 74 273t206 98q143 0 224 -98.5t81 -272.5q0 -134 -46.5 -221t-161.5 -119q268 -58 268 -358q0 -183 -99.5 -285t-275.5 -102h-143v39h143q159 0 246.5 90t87.5 258q0 69 -20 128.5t-60 107t-108.5 75t-157.5 27.5h-131v39h147q135 0 202.5 91t67.5 230 q0 161 -68.5 246.5t-195.5 85.5q-115 0 -177 -85.5t-62 -246.5v-1085h-41z" />
<glyph unicode="&#xe0;" horiz-adv-x="882" d="M109 299q0 147 91 227t259 80h231v166q0 132 -64 204.5t-182 72.5q-116 0 -188 -66.5t-74 -165.5h-39q8 118 88 193t213 75q136 0 210.5 -82t74.5 -231v-772h-39v142q-74 -162 -295 -162q-132 0 -209 84.5t-77 234.5zM147 299q0 -131 67.5 -207t182.5 -76q147 0 220 79 t73 229v245h-231q-151 0 -231.5 -70.5t-80.5 -199.5zM301 1442h49l156 -211h-39z" />
<glyph unicode="&#xe1;" horiz-adv-x="882" d="M109 299q0 147 91 227t259 80h231v166q0 132 -64 204.5t-182 72.5q-116 0 -188 -66.5t-74 -165.5h-39q8 118 88 193t213 75q136 0 210.5 -82t74.5 -231v-772h-39v142q-74 -162 -295 -162q-132 0 -209 84.5t-77 234.5zM147 299q0 -131 67.5 -207t182.5 -76q147 0 220 79 t73 229v245h-231q-151 0 -231.5 -70.5t-80.5 -199.5zM389 1231l156 211h49l-166 -211h-39z" />
<glyph unicode="&#xe2;" horiz-adv-x="882" d="M109 299q0 147 91 227t259 80h231v166q0 132 -64 204.5t-182 72.5q-116 0 -188 -66.5t-74 -165.5h-39q8 118 88 193t213 75q136 0 210.5 -82t74.5 -231v-772h-39v142q-74 -162 -295 -162q-132 0 -209 84.5t-77 234.5zM147 299q0 -131 67.5 -207t182.5 -76q147 0 220 79 t73 229v245h-231q-151 0 -231.5 -70.5t-80.5 -199.5zM270 1231l156 211h49l156 -211h-39l-141 181l-142 -181h-39z" />
<glyph unicode="&#xe3;" horiz-adv-x="882" d="M109 299q0 147 91 227t259 80h231v166q0 132 -64 204.5t-182 72.5q-116 0 -188 -66.5t-74 -165.5h-39q8 118 88 193t213 75q136 0 210.5 -82t74.5 -231v-772h-39v142q-74 -162 -295 -162q-132 0 -209 84.5t-77 234.5zM147 299q0 -131 67.5 -207t182.5 -76q147 0 220 79 t73 229v245h-231q-151 0 -231.5 -70.5t-80.5 -199.5zM250 1274q1 63 32.5 102t79.5 39q30 0 55.5 -17t40.5 -37t36.5 -37t44.5 -17q31 0 50.5 27t20.5 77h39q-3 -65 -33 -103t-79 -38q-29 0 -54 17t-40 37t-37 37t-46 17q-31 0 -50.5 -27t-20.5 -77h-39z" />
<glyph unicode="&#xe4;" horiz-adv-x="882" d="M109 299q0 147 91 227t259 80h231v166q0 132 -64 204.5t-182 72.5q-116 0 -188 -66.5t-74 -165.5h-39q8 118 88 193t213 75q136 0 210.5 -82t74.5 -231v-772h-39v142q-74 -162 -295 -162q-132 0 -209 84.5t-77 234.5zM147 299q0 -131 67.5 -207t182.5 -76q147 0 220 79 t73 229v245h-231q-151 0 -231.5 -70.5t-80.5 -199.5zM299 1325q0 49 49 49t49 -49t-49 -49t-49 49zM504 1325q0 49 49 49t49 -49t-49 -49t-49 49z" />
<glyph unicode="&#xe5;" horiz-adv-x="882" d="M109 299q0 147 91 227t259 80h231v166q0 132 -64 204.5t-182 72.5q-116 0 -188 -66.5t-74 -165.5h-39q8 118 88 193t213 75q136 0 210.5 -82t74.5 -231v-772h-39v142q-74 -162 -295 -162q-132 0 -209 84.5t-77 234.5zM147 299q0 -131 67.5 -207t182.5 -76q147 0 220 79 t73 229v245h-231q-151 0 -231.5 -70.5t-80.5 -199.5zM330 1343q0 54 33.5 86.5t87.5 32.5t87 -32.5t33 -86.5q0 -55 -33 -88.5t-87 -33.5t-87.5 33.5t-33.5 88.5zM367 1341q0 -38 23 -62t61 -24t61 24t23 62t-23 62t-61 24t-61 -24t-23 -62z" />
<glyph unicode="&#xe6;" horiz-adv-x="1411" d="M109 283q0 141 87.5 215.5t256.5 74.5h217v203q0 128 -63.5 200.5t-172.5 72.5q-114 0 -182 -64t-68 -164h-39q6 119 82.5 191.5t206.5 72.5q98 0 165 -51.5t93 -146.5q34 94 108.5 146t180.5 52q141 0 223 -91t82 -240v-217h-577v-226q0 -132 73 -213.5t199 -81.5 t199 81.5t73 213.5h39q0 -150 -83.5 -240.5t-227.5 -90.5q-106 0 -181.5 52.5t-109.5 145.5q-28 -95 -100.5 -146.5t-181.5 -51.5q-141 0 -220 81t-79 222zM147 283q0 -125 70 -196t197 -71q122 0 189 77t67 210v234h-217q-151 0 -228.5 -65t-77.5 -189zM709 573h538v181 q0 132 -71.5 213.5t-194.5 81.5q-126 0 -199 -81.5t-73 -213.5v-181z" />
<glyph unicode="&#xe7;" horiz-adv-x="851" d="M127 311v443q0 150 81 240.5t220 90.5q146 0 228.5 -93t82.5 -253h-39q0 142 -72 226t-200 84q-121 0 -191.5 -81.5t-70.5 -213.5v-443q0 -132 72 -213.5t196 -81.5q127 0 200 84.5t73 231.5h38q0 -162 -81.5 -256.5t-225.5 -95.5l-32 -99q21 6 51 6q63 0 101 -37t38 -96 q0 -62 -44.5 -98.5t-117.5 -36.5q-68 0 -116 41.5t-48 91.5h39q4 -44 38 -70t87 -26q55 0 89 26t34 72q0 42 -29 70.5t-69 28.5q-47 3 -78 -11l-16 19l38 120q-129 10 -202.5 99.5t-73.5 230.5z" />
<glyph unicode="&#xe8;" horiz-adv-x="874" d="M127 311v443q0 150 83.5 240.5t227.5 90.5q143 0 227.5 -91t84.5 -240v-244h-584v-199q0 -132 72 -213.5t196 -81.5q127 0 197 79t86 216h39q-16 -154 -96 -242.5t-226 -88.5q-143 0 -225 90.5t-82 240.5zM166 547h545v207q0 132 -74 213.5t-199 81.5q-126 0 -199 -81.5 t-73 -213.5v-207zM283 1442h49l155 -211h-38z" />
<glyph unicode="&#xe9;" horiz-adv-x="874" d="M127 311v443q0 150 83.5 240.5t227.5 90.5q143 0 227.5 -91t84.5 -240v-244h-584v-199q0 -132 72 -213.5t196 -81.5q127 0 197 79t86 216h39q-16 -154 -96 -242.5t-226 -88.5q-143 0 -225 90.5t-82 240.5zM166 547h545v207q0 132 -74 213.5t-199 81.5q-126 0 -199 -81.5 t-73 -213.5v-207zM371 1231l155 211h49l-165 -211h-39z" />
<glyph unicode="&#xea;" horiz-adv-x="874" d="M127 311v443q0 150 83.5 240.5t227.5 90.5q143 0 227.5 -91t84.5 -240v-244h-584v-199q0 -132 72 -213.5t196 -81.5q127 0 197 79t86 216h39q-16 -154 -96 -242.5t-226 -88.5q-143 0 -225 90.5t-82 240.5zM166 547h545v207q0 132 -74 213.5t-199 81.5q-126 0 -199 -81.5 t-73 -213.5v-207zM252 1231l156 211h49l155 -211h-39l-141 181l-141 -181h-39z" />
<glyph unicode="&#xeb;" horiz-adv-x="874" d="M127 311v443q0 150 83.5 240.5t227.5 90.5q143 0 227.5 -91t84.5 -240v-244h-584v-199q0 -132 72 -213.5t196 -81.5q127 0 197 79t86 216h39q-16 -154 -96 -242.5t-226 -88.5q-143 0 -225 90.5t-82 240.5zM166 547h545v207q0 132 -74 213.5t-199 81.5q-126 0 -199 -81.5 t-73 -213.5v-207zM281 1325q0 49 49 49t49 -49t-49 -49t-49 49zM485 1325q0 23 13.5 36t36.5 13q49 0 49 -49t-49 -49q-23 0 -36.5 13t-13.5 36z" />
<glyph unicode="&#xec;" horiz-adv-x="346" d="M25 1442h49l155 -211h-39zM154 0v1065h39v-1065h-39z" />
<glyph unicode="&#xed;" horiz-adv-x="346" d="M113 1231l155 211h49l-165 -211h-39zM154 0v1065h39v-1065h-39z" />
<glyph unicode="&#xee;" horiz-adv-x="446" d="M53 1231l146 211h49l145 -211h-37l-133 180l-133 -180h-37zM203 0v1065h39v-1065h-39z" />
<glyph unicode="&#xef;" horiz-adv-x="409" d="M53 1325q0 49 49 49q23 0 36.5 -13t13.5 -36t-13.5 -36t-36.5 -13q-49 0 -49 49zM184 0v1065h39v-1065h-39zM258 1325q0 49 49 49t49 -49t-49 -49t-49 49z" />
<glyph unicode="&#xf0;" horiz-adv-x="907" d="M127 311v391q0 150 81 241t222 91q96 0 171.5 -44.5t112.5 -121.5q-7 271 -138 426l-211 -127l-17 35l201 121q-92 92 -232 133l15 35q150 -43 251 -147l140 83l16 -34l-129 -78q144 -172 144 -467v-537q0 -150 -87 -240.5t-237 -90.5q-141 0 -222 90.5t-81 240.5z M166 311q0 -132 72 -213.5t196 -81.5q130 0 205.5 81.5t75.5 213.5v391q0 132 -75.5 213.5t-205.5 81.5q-124 0 -196 -81.5t-72 -213.5v-391z" />
<glyph unicode="&#xf1;" horiz-adv-x="899" d="M154 0v1065h39v-202q43 104 124 163t181 59q125 0 193.5 -99.5t68.5 -289.5v-696h-39v696q0 173 -59 263t-168 90q-130 0 -215.5 -110.5t-85.5 -283.5v-655h-39zM242 1274q1 63 32.5 102t79.5 39q30 0 55.5 -17t40 -37t36 -37t44.5 -17q32 0 51.5 27t20.5 77h39 q-3 -65 -33.5 -103t-79.5 -38q-29 0 -53.5 17t-39.5 37t-37 37t-46 17q-31 0 -50.5 -27t-20.5 -77h-39z" />
<glyph unicode="&#xf2;" d="M127 311v443q0 150 83.5 240.5t229.5 90.5t230 -90.5t84 -240.5v-443q0 -150 -84 -240.5t-230 -90.5t-229.5 90.5t-83.5 240.5zM166 311q0 -133 73.5 -214t200.5 -81t201 81.5t74 213.5v443q0 132 -74 213.5t-201 81.5t-200.5 -81t-73.5 -214v-443zM291 1442h49l156 -211 h-39z" />
<glyph unicode="&#xf3;" d="M127 311v443q0 150 83.5 240.5t229.5 90.5t230 -90.5t84 -240.5v-443q0 -150 -84 -240.5t-230 -90.5t-229.5 90.5t-83.5 240.5zM166 311q0 -133 73.5 -214t200.5 -81t201 81.5t74 213.5v443q0 132 -74 213.5t-201 81.5t-200.5 -81t-73.5 -214v-443zM379 1231l156 211h49 l-166 -211h-39z" />
<glyph unicode="&#xf4;" d="M127 311v443q0 150 83.5 240.5t229.5 90.5t230 -90.5t84 -240.5v-443q0 -150 -84 -240.5t-230 -90.5t-229.5 90.5t-83.5 240.5zM166 311q0 -133 73.5 -214t200.5 -81t201 81.5t74 213.5v443q0 132 -74 213.5t-201 81.5t-200.5 -81t-73.5 -214v-443zM260 1231l156 211h49 l156 -211h-39l-142 181l-141 -181h-39z" />
<glyph unicode="&#xf5;" d="M127 311v443q0 150 83.5 240.5t229.5 90.5t230 -90.5t84 -240.5v-443q0 -150 -84 -240.5t-230 -90.5t-229.5 90.5t-83.5 240.5zM166 311q0 -133 73.5 -214t200.5 -81t201 81.5t74 213.5v443q0 132 -74 213.5t-201 81.5t-200.5 -81t-73.5 -214v-443zM240 1274 q1 63 32.5 102t79.5 39q30 0 55.5 -17t40 -37t36 -37t44.5 -17q32 0 51.5 27t20.5 77h39q-3 -65 -33.5 -103t-79.5 -38q-29 0 -53.5 17t-39.5 37t-37 37t-46 17q-31 0 -50.5 -27t-20.5 -77h-39z" />
<glyph unicode="&#xf6;" d="M127 311v443q0 150 83.5 240.5t229.5 90.5t230 -90.5t84 -240.5v-443q0 -150 -84 -240.5t-230 -90.5t-229.5 90.5t-83.5 240.5zM166 311q0 -133 73.5 -214t200.5 -81t201 81.5t74 213.5v443q0 132 -74 213.5t-201 81.5t-200.5 -81t-73.5 -214v-443zM289 1325q0 49 49 49 t49 -49t-49 -49t-49 49zM494 1325q0 49 49 49t49 -49t-49 -49t-49 49z" />
<glyph unicode="&#xf7;" horiz-adv-x="849" d="M111 612v37h628v-37h-628zM375 375q0 21 15 36t36 15q22 0 36.5 -14.5t14.5 -36.5t-14.5 -36.5t-36.5 -14.5q-21 0 -36 15t-15 36zM375 887q0 21 15 36t36 15q22 0 36.5 -14.5t14.5 -36.5t-14.5 -36.5t-36.5 -14.5q-21 0 -36 15t-15 36z" />
<glyph unicode="&#xf8;" d="M127 311v443q0 150 83.5 240.5t229.5 90.5q95 0 166 -40l51 141h37l-58 -161q118 -90 118 -271v-443q0 -150 -84 -240.5t-230 -90.5q-97 0 -169 42l-48 -133h-37l56 153q-115 90 -115 269zM166 311q0 -149 90 -230l337 927q-66 41 -153 41q-127 0 -200.5 -81t-73.5 -214 v-443zM285 59q67 -43 155 -43q127 0 201 81.5t74 213.5v443q0 151 -93 232z" />
<glyph unicode="&#xf9;" horiz-adv-x="899" d="M139 369v696h39v-696q0 -173 59.5 -263t168.5 -90q130 0 215.5 110.5t85.5 283.5v655h38v-1065h-38v202q-43 -103 -124.5 -162.5t-181.5 -59.5q-125 0 -193.5 99.5t-68.5 289.5zM279 1442h49l155 -211h-39z" />
<glyph unicode="&#xfa;" horiz-adv-x="899" d="M139 369v696h39v-696q0 -173 59.5 -263t168.5 -90q130 0 215.5 110.5t85.5 283.5v655h38v-1065h-38v202q-43 -103 -124.5 -162.5t-181.5 -59.5q-125 0 -193.5 99.5t-68.5 289.5zM367 1231l155 211h49l-165 -211h-39z" />
<glyph unicode="&#xfb;" horiz-adv-x="899" d="M139 369v696h39v-696q0 -173 59.5 -263t168.5 -90q130 0 215.5 110.5t85.5 283.5v655h38v-1065h-38v202q-43 -103 -124.5 -162.5t-181.5 -59.5q-125 0 -193.5 99.5t-68.5 289.5zM248 1231l155 211h50l155 -211h-39l-141 181l-141 -181h-39z" />
<glyph unicode="&#xfc;" horiz-adv-x="899" d="M139 369v696h39v-696q0 -173 59.5 -263t168.5 -90q130 0 215.5 110.5t85.5 283.5v655h38v-1065h-38v202q-43 -103 -124.5 -162.5t-181.5 -59.5q-125 0 -193.5 99.5t-68.5 289.5zM276 1325q0 23 13.5 36t36.5 13q49 0 49 -49t-49 -49q-23 0 -36.5 13t-13.5 36zM481 1325 q0 49 49 49q23 0 36.5 -13t13.5 -36t-13.5 -36t-36.5 -13q-49 0 -49 49z" />
<glyph unicode="&#xfd;" horiz-adv-x="755" d="M43 1065h43l209 -604l100 -293l90 295l187 602h41l-385 -1243q-64 -191 -185 -191h-53v37h51q95 0 152 166l83 270zM317 1231l156 211h49l-166 -211h-39z" />
<glyph unicode="&#xfe;" horiz-adv-x="899" d="M154 -369v1848h39v-550q39 69 112 112.5t160 43.5q131 0 219 -92.5t88 -234.5v-451q0 -140 -87.5 -233.5t-215.5 -93.5q-89 0 -165.5 47.5t-110.5 126.5v-523h-39zM193 287q0 -113 78 -192t192 -79q115 0 192.5 81.5t77.5 209.5v451q0 128 -77.5 209.5t-192.5 81.5 q-114 0 -192 -79t-78 -192v-491z" />
<glyph unicode="&#xff;" horiz-adv-x="755" d="M43 1065h43l209 -604l100 -293l90 295l187 602h41l-385 -1243q-64 -191 -185 -191h-53v37h51q95 0 152 166l83 270zM227 1325q0 49 49 49q23 0 36.5 -13t13.5 -36t-13.5 -36t-36.5 -13q-49 0 -49 49zM432 1325q0 49 49 49t49 -49t-49 -49t-49 49z" />
<glyph unicode="&#x152;" horiz-adv-x="1554" d="M139 393v645q0 205 101 311.5t278 106.5q119 0 204 -55.5t126 -164.5v198h616v-39h-575v-645h534v-39h-534v-672h575v-39h-616v181q-43 -100 -128 -152t-202 -52q-177 0 -278 106.5t-101 309.5zM180 393q0 -186 89.5 -281.5t248.5 -95.5q155 0 242.5 95.5t87.5 281.5v645 q0 187 -87.5 283t-242.5 96q-159 0 -248.5 -95.5t-89.5 -283.5v-645z" />
<glyph unicode="&#x153;" horiz-adv-x="1472" d="M127 311v443q0 150 83.5 240.5t229.5 90.5q109 0 186 -58t107 -159q32 101 108.5 159t184.5 58q143 0 226 -90.5t83 -240.5v-250h-581v-193q0 -132 73 -213.5t199 -81.5q130 0 201.5 79t87.5 216h39q-16 -154 -98 -242.5t-230 -88.5q-108 0 -184.5 56t-108.5 155 q-30 -99 -106.5 -155t-186.5 -56q-146 0 -229.5 90.5t-83.5 240.5zM166 311q0 -133 73.5 -214t200.5 -81t201 81.5t74 213.5v443q0 132 -74 213.5t-201 81.5t-200.5 -81t-73.5 -214v-443zM754 541h542v213q0 132 -73 213.5t-197 81.5q-126 0 -199 -81.5t-73 -213.5v-213z " />
<glyph unicode="&#x178;" horiz-adv-x="817" d="M23 1434h43l268 -652q13 -31 38.5 -91.5t37.5 -90.5q12 31 36.5 91t36.5 91l269 652h43l-365 -891v-543h-41v543zM246 1708q0 49 49 49t49 -49t-49 -49t-49 49zM471 1708q0 49 49 49t49 -49t-49 -49t-49 49z" />
<glyph unicode="&#x2000;" horiz-adv-x="919" />
<glyph unicode="&#x2001;" horiz-adv-x="1839" />
<glyph unicode="&#x2002;" horiz-adv-x="919" />
<glyph unicode="&#x2003;" horiz-adv-x="1839" />
<glyph unicode="&#x2004;" horiz-adv-x="613" />
<glyph unicode="&#x2005;" horiz-adv-x="459" />
<glyph unicode="&#x2006;" horiz-adv-x="306" />
<glyph unicode="&#x2007;" horiz-adv-x="306" />
<glyph unicode="&#x2008;" horiz-adv-x="229" />
<glyph unicode="&#x2009;" horiz-adv-x="367" />
<glyph unicode="&#x200a;" horiz-adv-x="102" />
<glyph unicode="&#x2010;" horiz-adv-x="686" d="M102 504v39h482v-39h-482z" />
<glyph unicode="&#x2011;" horiz-adv-x="686" d="M102 504v39h482v-39h-482z" />
<glyph unicode="&#x2012;" horiz-adv-x="686" d="M102 504v39h482v-39h-482z" />
<glyph unicode="&#x2013;" horiz-adv-x="890" d="M102 504v39h686v-39h-686z" />
<glyph unicode="&#x2014;" horiz-adv-x="1136" d="M102 504v39h932v-39h-932z" />
<glyph unicode="&#x2018;" horiz-adv-x="204" d="M53 1090l68 348h35l-37 -348h-66z" />
<glyph unicode="&#x2019;" horiz-adv-x="204" d="M49 1081l37 349h66l-68 -349h-35z" />
<glyph unicode="&#x201a;" horiz-adv-x="245" d="M72 -248l37 348h65l-68 -348h-34z" />
<glyph unicode="&#x201c;" horiz-adv-x="368" d="M53 1085l68 349h35l-37 -349h-66zM217 1085l68 349h34l-36 -349h-66z" />
<glyph unicode="&#x201d;" horiz-adv-x="368" d="M49 1085l37 349h66l-68 -349h-35zM213 1085l37 349h65l-67 -349h-35z" />
<glyph unicode="&#x201e;" horiz-adv-x="409" d="M72 -248l37 348h65l-68 -348h-34zM236 -248l36 348h66l-68 -348h-34z" />
<glyph unicode="&#x2022;" horiz-adv-x="389" d="M102 512q0 42 25.5 68t65.5 26q43 0 68.5 -25.5t25.5 -68.5q0 -40 -26 -65t-68 -25q-40 0 -65.5 25t-25.5 65z" />
<glyph unicode="&#x2026;" horiz-adv-x="909" d="M119 35q0 49 49 49t49 -49t-49 -49t-49 49zM406 35q0 49 49 49t49 -49t-49 -49t-49 49zM692 35q0 49 49 49q23 0 36.5 -13t13.5 -36t-13.5 -36t-36.5 -13q-49 0 -49 49z" />
<glyph unicode="&#x202f;" horiz-adv-x="367" />
<glyph unicode="&#x2039;" horiz-adv-x="526" d="M102 512v29l275 327h47l-287 -342l287 -342h-47z" />
<glyph unicode="&#x203a;" horiz-adv-x="526" d="M102 184l287 342l-287 342h48l274 -327v-29l-274 -328h-48z" />
<glyph unicode="&#x205f;" horiz-adv-x="459" />
<glyph unicode="&#x20ac;" horiz-adv-x="1083" d="M102 571v37h168v215h-168v37h168v178q0 206 93.5 313t257.5 107q338 0 368 -383h-41q-15 175 -95.5 259.5t-231.5 84.5q-145 0 -227.5 -96t-82.5 -285v-178h428v-37h-428v-215h428v-37h-428v-178q0 -187 82.5 -283t227.5 -96q311 0 335 344h41q-12 -191 -107.5 -287 t-268.5 -96q-164 0 -257.5 106.5t-93.5 311.5v178h-168z" />
<glyph unicode="&#x2122;" horiz-adv-x="931" d="M86 1405v29h279v-29h-125v-500h-29v500h-125zM428 905v529h35l127 -267q7 -15 20.5 -43.5t20.5 -42.5q7 14 20.5 42.5t20.5 43.5l127 267h35v-529h-29v365v110v2q-8 -18 -24.5 -51t-24.5 -51l-111 -231h-29l-110 231q-8 18 -24.5 51t-24.5 51v-2v-110v-365h-29z" />
<glyph unicode="&#x25fc;" horiz-adv-x="1064" d="M0 0v1065h1065v-1065h-1065z" />
</font>
</defs>
</svg>
